# xmcd CD database file
#
# Track frame offsets:
#	150
#	15013
#	30636
#	45669
#	60222
#	78655
#	94168
#	107822
#	124805
#	145369
#	161933
#	175487
#	192770
#
# Disc length: 2761 seconds
#
# Revision: 0
# Processed by: cddbd v1.5PL3 Copyright (c) Steve Scherf et al.
# Submitted via: CDex 1.51
#
DISCID=a70ac70d
DTITLE=Norah Jones - Feels Like Home
DYEAR=2004
DGENRE=Jazz
TTITLE0=Norah Jones - Sunrise
TTITLE1=Norah Jones - What Am I To You?
TTITLE2=Norah Jones - Those Sweet Words
TTITLE3=Norah Jones - Carnival Town
TTITLE4=Norah Jones - In The Morning
TTITLE5=Norah Jones - Be Here To Love Me
TTITLE6=Norah Jones - Creepin' In
TTITLE7=Norah Jones - Toes
TTITLE8=Norah Jones - Humble Me
TTITLE9=Norah Jones - Above Ground
TTITLE10=Norah Jones - The Long Way Home
TTITLE11=Norah Jones - The Prettiest Thing
TTITLE12=Norah Jones - Don't Miss You At All
EXTD=YEAR: 2004
EXTT0=
EXTT1=
EXTT2=
EXTT3=
EXTT4=
EXTT5=
EXTT6=
EXTT7=
EXTT8=
EXTT9=
EXTT10=
EXTT11=
EXTT12=
PLAYORDER=
